<svg width="221" height="205" viewBox="0 0 221 205" fill="none" xmlns="http://www.w3.org/2000/svg">
<g filter="url(#filter0_i_375_47)">
<g filter="url(#filter1_d_375_47)">
<path d="M135.829 85.771C135.525 84.6555 134.932 83.6386 134.11 82.8215C133.287 82.0044 132.262 81.4156 131.139 81.1137C127.026 80 110.473 80 110.473 80C110.473 80 93.9193 80.0337 89.8064 81.1474C88.683 81.4493 87.6588 82.0382 86.8358 82.8553C86.0129 83.6725 85.4199 84.6894 85.1159 85.8049C83.8719 93.0606 83.3893 104.117 85.1501 111.082C85.4541 112.197 86.0471 113.214 86.87 114.032C87.693 114.849 88.7172 115.437 89.8406 115.739C93.9535 116.853 110.507 116.853 110.507 116.853C110.507 116.853 127.06 116.853 131.173 115.739C132.296 115.437 133.32 114.849 134.143 114.032C134.966 113.214 135.559 112.198 135.863 111.082C137.176 103.816 137.58 92.7669 135.829 85.771Z" fill="#4F8FF8"/>
</g>
<path d="M105.204 106.325L118.936 98.4283L105.204 90.5312V106.325Z" fill="white"/>
</g>
<defs>
<filter id="filter0_i_375_47" x="84" y="80" width="53" height="37" filterUnits="userSpaceOnUse" color-interpolation-filters="sRGB">
<feFlood flood-opacity="0" result="BackgroundImageFix"/>
<feBlend mode="normal" in="SourceGraphic" in2="BackgroundImageFix" result="shape"/>
<feColorMatrix in="SourceAlpha" type="matrix" values="0 0 0 0 0 0 0 0 0 0 0 0 0 0 0 0 0 0 127 0" result="hardAlpha"/>
<feOffset dy="-117"/>
<feGaussianBlur stdDeviation="11.05"/>
<feComposite in2="hardAlpha" operator="arithmetic" k2="-1" k3="1"/>
<feColorMatrix type="matrix" values="0 0 0 0 0.231373 0 0 0 0 0.509804 0 0 0 0 0.964706 0 0 0 0.08 0"/>
<feBlend mode="normal" in2="shape" result="effect1_innerShadow_375_47"/>
</filter>
<filter id="filter1_d_375_47" x="0" y="0" width="220.999" height="204.852" filterUnits="userSpaceOnUse" color-interpolation-filters="sRGB">
<feFlood flood-opacity="0" result="BackgroundImageFix"/>
<feColorMatrix in="SourceAlpha" type="matrix" values="0 0 0 0 0 0 0 0 0 0 0 0 0 0 0 0 0 0 127 0" result="hardAlpha"/>
<feOffset dy="4"/>
<feGaussianBlur stdDeviation="42"/>
<feComposite in2="hardAlpha" operator="out"/>
<feColorMatrix type="matrix" values="0 0 0 0 0.0399871 0 0 0 0 0.340596 0 0 0 0 0.831731 0 0 0 0.17 0"/>
<feBlend mode="normal" in2="BackgroundImageFix" result="effect1_dropShadow_375_47"/>
<feBlend mode="normal" in="SourceGraphic" in2="effect1_dropShadow_375_47" result="shape"/>
</filter>
</defs>
</svg>
