<svg width="53" height="37" viewBox="0 0 53 37" fill="none" xmlns="http://www.w3.org/2000/svg">
<path d="M51.8295 5.77097C51.5255 4.65554 50.9325 3.63863 50.1095 2.82151C49.2866 2.0044 48.2624 1.41558 47.139 1.1137C43.0261 0 26.4731 0 26.4731 0C26.4731 0 9.91932 0.033711 5.80644 1.14741C4.68298 1.44931 3.65879 2.03816 2.83584 2.85531C2.01289 3.67247 1.41991 4.68942 1.11594 5.80489C-0.128113 13.0606 -0.610702 24.1166 1.1501 31.0821C1.4541 32.1975 2.04709 33.2144 2.87004 34.0315C3.69299 34.8486 4.71717 35.4375 5.8406 35.7393C9.95348 36.853 26.5069 36.853 26.5069 36.853C26.5069 36.853 43.06 36.853 47.1727 35.7393C48.2962 35.4375 49.3204 34.8487 50.1434 34.0316C50.9664 33.2144 51.5594 32.1975 51.8634 31.0821C53.1756 23.8161 53.5799 12.7669 51.8295 5.77097Z" fill="#4F8FF8"/>
<path d="M21.2041 26.3253L34.9361 18.4283L21.2041 10.5312V26.3253Z" fill="white"/>
</svg>
