<svg width="62" height="62" viewBox="0 0 62 62" fill="none" xmlns="http://www.w3.org/2000/svg">
<path d="M18.0827 43.9154C14.5091 43.9154 11.4633 42.6556 8.94543 40.1359C6.42755 37.6163 5.16774 34.5706 5.16602 30.9987C5.1643 27.4268 6.4241 24.3811 8.94543 21.8614C11.4668 19.3418 14.5125 18.082 18.0827 18.082H25.8327C26.5646 18.082 27.1786 18.33 27.6746 18.826C28.1706 19.322 28.4177 19.9351 28.416 20.6654C28.4143 21.3956 28.1663 22.0096 27.672 22.5073C27.1777 23.005 26.5646 23.2521 25.8327 23.2487H18.0827C15.9299 23.2487 14.1 24.0022 12.5931 25.5091C11.0862 27.0161 10.3327 28.8459 10.3327 30.9987C10.3327 33.1515 11.0862 34.9813 12.5931 36.4883C14.1 37.9952 15.9299 38.7487 18.0827 38.7487H25.8327C26.5646 38.7487 27.1786 38.9967 27.6746 39.4927C28.1706 39.9887 28.4177 40.6018 28.416 41.332C28.4143 42.0623 28.1663 42.6762 27.672 43.1739C27.1777 43.6717 26.5646 43.9188 25.8327 43.9154H18.0827ZM23.2493 33.582C22.5174 33.582 21.9043 33.334 21.41 32.838C20.9157 32.342 20.6677 31.7289 20.666 30.9987C20.6643 30.2685 20.9123 29.6554 21.41 29.1594C21.9077 28.6634 22.5208 28.4154 23.2493 28.4154H38.7494C39.4813 28.4154 40.0953 28.6634 40.5913 29.1594C41.0873 29.6554 41.3344 30.2685 41.3327 30.9987C41.331 31.7289 41.083 32.3429 40.5887 32.8406C40.0944 33.3383 39.4813 33.5855 38.7494 33.582H23.2493ZM36.166 43.9154C35.4341 43.9154 34.821 43.6674 34.3267 43.1714C33.8324 42.6754 33.5844 42.0623 33.5827 41.332C33.581 40.6018 33.829 39.9887 34.3267 39.4927C34.8244 38.9967 35.4375 38.7487 36.166 38.7487H43.916C46.0688 38.7487 47.8987 37.9952 49.4056 36.4883C50.9125 34.9813 51.666 33.1515 51.666 30.9987C51.666 28.8459 50.9125 27.0161 49.4056 25.5091C47.8987 24.0022 46.0688 23.2487 43.916 23.2487H36.166C35.4341 23.2487 34.821 23.0007 34.3267 22.5047C33.8324 22.0087 33.5844 21.3956 33.5827 20.6654C33.581 19.9351 33.829 19.322 34.3267 18.826C34.8244 18.33 35.4375 18.082 36.166 18.082H43.916C47.4896 18.082 50.5362 19.3418 53.0558 21.8614C55.5755 24.3811 56.8344 27.4268 56.8327 30.9987C56.831 34.5706 55.5712 37.6172 53.0533 40.1385C50.5354 42.6599 47.4896 43.9188 43.916 43.9154H36.166Z" fill="url(#paint0_radial_375_64)"/>
<defs>
<radialGradient id="paint0_radial_375_64" cx="0" cy="0" r="1" gradientTransform="matrix(31.487 31.543 -63.086 15.7435 5.16601 21.1468)" gradientUnits="userSpaceOnUse">
<stop stop-color="#A5C7FE"/>
<stop offset="1" stop-color="#3B82F6"/>
</radialGradient>
</defs>
</svg>
