<svg width="540" height="619" viewBox="0 0 540 619" fill="none" xmlns="http://www.w3.org/2000/svg">
<path d="M428.418 96.9767C404.882 70.1371 391.91 35.675 391.913 0H285.497V426.422C284.694 449.504 274.943 471.371 258.301 487.411C241.66 503.451 219.43 512.408 196.301 512.394C147.398 512.394 106.76 472.503 106.76 422.983C106.76 363.834 163.929 319.473 222.819 337.699V229.03C104.005 213.211 0 305.373 0 422.983C0 537.498 95.051 619 195.957 619C304.094 619 391.913 531.308 391.913 422.983V206.677C435.065 237.622 486.873 254.225 540 254.134V147.872C540 147.872 475.255 150.967 428.418 96.9767Z" fill="#E0ECFF"/>
</svg>
